<svg width="19" height="25" viewBox="0 0 19 25" fill="none" xmlns="http://www.w3.org/2000/svg">
<path d="M9.09091 3.40909V0L4.54546 4.54545L9.09091 9.09091V5.68182C12.858 5.68182 15.9091 8.73295 15.9091 12.5C15.9091 13.6534 15.6193 14.733 15.1193 15.6875L16.7784 17.3466C17.6591 15.9375 18.1818 14.2841 18.1818 12.5C18.1818 7.47727 14.1136 3.40909 9.09091 3.40909ZM9.09091 19.3182C5.32386 19.3182 2.27273 16.267 2.27273 12.5C2.27273 11.3466 2.5625 10.267 3.0625 9.3125L1.40341 7.65341C0.522728 9.0625 0 10.7159 0 12.5C0 17.5227 4.06818 21.5909 9.09091 21.5909V25L13.6364 20.4545L9.09091 15.9091V19.3182Z" fill="#000AFF"/>
</svg>
